<?xml version="1.0" standalone="no"?>
<!DOCTYPE svg PUBLIC "-//W3C//DTD SVG 20010904//EN"
 "http://www.w3.org/TR/2001/REC-SVG-20010904/DTD/svg10.dtd">
<svg version="1.0" xmlns="http://www.w3.org/2000/svg"
 width="736.000000pt" height="739.000000pt" viewBox="0 0 736.000000 739.000000"
 preserveAspectRatio="xMidYMid meet">

<g transform="translate(0.000000,739.000000) scale(0.100000,-0.100000)"
fill="#000000" stroke="none">
<path d="M3200 5775 c-14 -8 -20 -14 -14 -15 5 0 19 7 30 15 24 18 16 19 -16
0z"/>
<path d="M4588 5578 c11 -14 52 -31 52 -22 0 2 -15 11 -32 20 -28 14 -31 15
-20 2z"/>
<path d="M4690 5512 c24 -23 53 -43 65 -44 11 -2 19 -9 18 -15 -1 -6 13 -24
32 -40 18 -15 52 -43 74 -62 23 -18 39 -37 36 -41 -3 -5 4 -11 15 -15 11 -3
19 -10 17 -14 -1 -4 25 -34 58 -67 118 -118 176 -184 169 -196 -5 -7 -3 -8 6
-3 9 5 10 2 6 -13 -4 -12 -2 -23 5 -28 7 -4 9 -3 6 2 -12 20 7 33 27 18 11 -8
15 -14 8 -14 -6 0 -9 -7 -5 -16 5 -13 8 -13 15 -2 7 9 8 7 5 -9 -3 -13 0 -23
6 -23 6 0 7 -3 4 -7 -4 -3 5 -21 19 -40 14 -18 27 -43 29 -55 3 -12 11 -29 20
-37 13 -13 14 -11 5 18 -31 109 -213 383 -242 364 -6 -3 -8 -1 -5 4 9 14 -52
84 -66 76 -5 -3 -7 -2 -4 4 3 5 -8 27 -26 49 -18 23 -22 31 -9 20 34 -30 26
-13 -10 20 -18 16 -26 21 -19 12 22 -29 -1 -20 -44 17 -38 33 -49 39 -68 36
-5 -1 -6 3 -3 7 6 9 -72 67 -149 112 l-40 23 45 -41z"/>
<path d="M3262 5500 c-98 -9 -257 -37 -281 -50 -9 -4 5 -10 35 -15 68 -10 299
-77 359 -105 89 -40 129 -58 185 -81 30 -12 66 -30 80 -38 14 -9 41 -24 60
-34 53 -27 182 -157 225 -226 50 -80 60 -169 21 -184 -20 -8 -84 11 -93 27
-18 29 -259 183 -270 172 -4 -3 -1 -17 5 -31 8 -17 8 -26 1 -31 -6 -3 -65 21
-132 54 -264 132 -484 172 -739 137 -18 -2 -4 4 32 13 36 10 76 23 90 29 79
33 278 81 378 90 66 6 81 15 62 38 -9 10 -8 19 5 39 15 23 15 25 -2 34 -54 29
-269 82 -333 82 -26 0 -31 3 -20 10 20 13 13 12 -42 -4 -260 -79 -486 -202
-687 -375 -80 -69 -111 -87 -111 -65 0 3 4 3 9 0 5 -3 14 1 21 9 11 13 10 14
-4 9 -9 -3 -23 -1 -31 6 -21 18 -19 35 3 19 15 -13 16 -12 3 3 -12 16 -7 24
42 73 30 30 51 55 47 55 -14 0 -132 -132 -200 -224 -93 -127 -182 -278 -244
-415 -77 -168 -78 -171 -87 -166 -4 3 -10 1 -14 -5 -3 -5 -2 -10 4 -10 6 0 8
-7 4 -16 -4 -11 -8 -12 -13 -4 -5 8 -9 7 -14 -5 -3 -10 -12 -15 -21 -11 -9 3
-15 0 -15 -8 0 -7 -8 -20 -19 -30 -15 -14 -20 -14 -29 -3 -7 8 -9 17 -5 21 4
4 8 19 10 34 3 25 2 24 -12 -7 -14 -31 -14 -36 1 -59 9 -13 11 -21 5 -18 -6 4
-11 0 -12 -11 -1 -12 -3 -10 -8 7 -12 45 -71 -193 -93 -375 -20 -170 -17 -626
5 -745 24 -130 55 -254 77 -313 11 -28 17 -54 14 -58 -3 -5 2 -19 11 -32 8
-13 13 -32 9 -41 -3 -9 -2 -16 4 -16 5 0 13 -7 16 -16 4 -10 2 -13 -6 -8 -8 5
-9 2 -5 -10 4 -10 1 -19 -9 -23 -21 -8 -38 -54 -24 -63 7 -5 6 -11 -4 -19 -10
-9 -12 -18 -7 -29 5 -10 25 -52 45 -94 20 -42 54 -99 75 -125 39 -50 101 -146
83 -128 -6 6 -43 55 -82 110 -122 170 -238 435 -284 648 -10 42 -21 77 -26 77
-6 0 -7 21 -5 48 l5 47 -15 -30 -15 -30 5 35 c4 31 4 32 -5 11 -13 -30 -16
-121 -4 -130 5 -3 10 -24 12 -46 2 -22 10 -53 18 -69 8 -16 14 -35 14 -43 0
-8 5 -11 12 -7 6 4 8 3 5 -3 -17 -27 68 -229 182 -438 176 -320 479 -636 836
-873 241 -161 606 -310 825 -337 357 -44 600 -45 865 -4 97 15 376 92 482 133
261 102 563 294 790 503 86 80 232 236 204 219 -8 -5 -7 1 4 18 10 15 26 31
37 37 10 5 15 15 12 21 -4 7 -3 8 4 4 6 -4 16 4 23 16 7 12 30 45 51 72 21 27
37 55 34 62 -3 8 0 13 7 11 7 -1 11 6 11 15 -1 10 2 15 7 12 5 -3 9 -2 10 3 3
32 10 49 25 60 10 7 14 13 8 13 -5 0 -5 3 1 8 24 17 137 247 186 378 133 355
173 620 150 1004 -7 102 -16 189 -20 193 -5 5 -20 2 -34 -8 -30 -19 -28 -22
-47 90 l-12 70 -34 0 c-19 0 -34 -3 -34 -7 0 -5 -7 -8 -15 -8 -9 0 -24 19 -35
42 l-18 42 1 -265 c2 -213 -1 -284 -16 -369 -32 -191 -94 -337 -195 -464 -82
-102 -260 -276 -328 -320 -33 -21 -71 -46 -85 -56 -74 -51 -272 -138 -385
-168 -106 -29 -285 -52 -400 -52 -71 0 -111 6 -172 25 -99 31 -109 42 -86 90
29 61 77 92 178 114 50 11 111 22 136 25 48 5 110 32 110 47 0 5 5 9 11 9 6 0
24 11 41 25 16 14 38 25 48 25 12 0 17 5 14 14 -3 9 5 16 23 20 150 35 373
135 476 212 64 49 82 56 47 19 -32 -34 -13 -32 37 5 22 16 42 27 45 24 3 -2
20 9 38 26 18 16 35 30 39 30 10 0 93 90 139 151 61 82 117 194 136 274 17 76
36 237 43 380 5 100 -24 306 -57 405 -10 30 -29 91 -43 135 -49 152 -170 379
-249 464 -21 22 -38 47 -38 55 0 8 -3 16 -7 18 -5 2 -35 36 -68 77 -33 41 -72
78 -87 83 -15 6 -28 14 -28 19 0 5 -18 21 -40 35 -22 15 -37 30 -34 35 3 5 1
9 -5 9 -5 0 -13 -5 -16 -11 -7 -11 115 -145 128 -141 5 1 6 -2 3 -7 -4 -5 6
-23 21 -40 32 -34 178 -320 188 -366 4 -16 10 -39 15 -50 28 -69 60 -161 81
-235 20 -70 24 -109 24 -223 0 -110 -3 -140 -14 -147 -9 -5 -15 -24 -15 -44 0
-19 -4 -32 -8 -30 -4 3 -8 -8 -8 -24 0 -79 -66 -259 -119 -322 -28 -34 -26
-10 4 50 69 136 99 302 93 505 -4 113 -9 148 -42 265 -43 154 -50 170 -59 146
-4 -10 -3 -15 3 -11 6 3 10 -1 10 -9 0 -29 -18 -25 -30 7 l-11 32 -22 -27
c-25 -31 -37 -35 -37 -13 0 8 -5 15 -11 15 -6 0 -8 -7 -5 -16 3 -9 6 -25 7
-37 0 -21 1 -21 8 -2 5 12 8 0 7 -35 0 -30 6 -102 13 -160 19 -148 10 -328
-23 -455 -54 -207 -157 -361 -310 -463 -150 -100 -430 -187 -641 -198 -66 -4
-131 -12 -145 -20 -14 -7 -59 -22 -100 -34 -121 -35 -121 -35 -75 -51 29 -10
91 -14 217 -14 195 0 203 -12 13 -22 -150 -7 -243 11 -354 69 -98 51 -128 61
-135 42 -3 -8 -3 -21 1 -29 3 -10 0 -15 -8 -13 -8 2 -13 -3 -11 -10 1 -9 -6
-11 -25 -6 -16 4 -32 7 -38 8 -5 0 -16 7 -23 14 -8 7 -18 9 -24 6 -6 -4 -8 -2
-5 3 4 6 -6 19 -21 28 -39 25 -67 59 -214 255 -72 96 -149 194 -171 217 l-40
41 -41 -18 c-218 -97 -335 -173 -455 -291 -211 -210 -341 -471 -387 -775 -4
-31 -9 -42 -15 -33 -7 11 -9 10 -9 -4 0 -10 -6 -17 -12 -15 -31 11 -17 176 29
328 75 255 280 527 513 682 117 77 290 168 323 168 37 1 -41 37 -111 51 -50
11 -71 11 -112 0 -57 -15 -157 -65 -240 -121 -60 -41 -220 -199 -249 -246 -10
-16 -25 -35 -35 -43 -9 -8 -24 -30 -33 -50 -10 -20 -23 -42 -30 -49 -16 -17
-81 -153 -126 -267 -29 -74 -50 -225 -50 -355 1 -141 14 -208 73 -379 22 -62
34 -109 28 -103 -7 5 -35 9 -63 8 -27 0 -55 4 -62 10 -21 20 -92 135 -129 210
-21 40 -41 71 -46 68 -4 -3 -8 0 -8 5 0 6 -6 11 -14 11 -7 0 -16 14 -20 31 -4
20 -10 28 -18 23 -7 -5 -9 -2 -6 7 3 8 0 26 -8 40 -10 17 -13 19 -14 7 0 -9 4
-19 10 -23 5 -3 7 -12 3 -21 -3 -8 -7 -13 -9 -11 -18 17 -84 368 -84 443 0 24
-5 44 -10 44 -6 0 -10 6 -9 13 1 6 0 19 -3 27 -41 110 -42 118 -42 250 0 155
6 250 16 244 4 -3 6 11 4 31 -1 19 1 35 6 35 4 0 8 11 8 25 0 22 8 29 30 27 6
-1 8 10 13 62 1 13 5 22 10 19 4 -2 7 0 7 5 0 4 9 17 19 29 10 11 26 34 35 52
9 17 21 29 26 26 6 -4 14 4 19 17 5 13 37 50 70 83 33 33 61 64 61 68 0 10 67
77 76 77 8 0 74 54 130 106 23 22 56 50 73 64 16 14 30 30 31 36 0 6 19 21 43
34 23 13 65 40 92 59 65 47 81 57 135 82 112 52 180 75 247 83 24 3 69 12 102
21 33 8 66 12 75 9 9 -3 53 1 99 10 265 51 492 33 692 -55 125 -55 213 -117
316 -227 l84 -90 63 29 c82 37 188 141 226 223 33 69 45 205 28 298 -26 137
-109 286 -212 381 -66 62 -194 149 -285 194 -190 96 -503 146 -763 123z m-607
-420 c-11 -5 -27 -9 -35 -9 -9 0 -8 4 5 9 11 5 27 9 35 9 9 0 8 -4 -5 -9z
m415 -21 c102 -20 292 -80 323 -102 61 -42 111 -91 114 -110 2 -13 -2 -17 -14
-13 -75 21 -126 17 -373 -24 -25 -4 -92 -21 -150 -38 -58 -16 -118 -33 -133
-36 -15 -4 -25 -10 -23 -15 3 -5 -16 -14 -42 -21 -45 -11 -92 -27 -157 -53
-16 -7 -82 -38 -145 -70 -158 -81 -289 -167 -443 -293 -9 -8 -21 -14 -27 -14
-5 0 -12 -5 -16 -12 -5 -7 -2 -9 7 -4 8 4 -8 -13 -36 -38 -27 -25 -53 -46 -57
-46 -4 0 -19 -12 -35 -27 -15 -16 -36 -33 -47 -38 -20 -10 -167 -221 -205
-295 -43 -84 -81 -152 -81 -146 0 20 56 264 85 369 62 229 121 342 288 556 78
100 317 292 447 360 144 75 261 110 395 118 50 3 91 6 92 7 7 6 184 -6 233
-15z m2214 -55 c3 -8 2 -12 -4 -9 -6 3 -10 10 -10 16 0 14 7 11 14 -7z m26
-59 c0 -5 -5 -3 -10 5 -5 8 -10 20 -10 25 0 6 5 3 10 -5 5 -8 10 -19 10 -25z
m31 -57 c12 -24 15 -36 7 -28 -15 16 -41 70 -33 70 3 0 14 -19 26 -42z m-2873
-426 c-18 -16 -73 -56 -123 -89 -49 -33 -126 -88 -169 -122 -43 -34 -82 -58
-85 -55 -3 3 5 14 19 23 23 15 95 78 148 129 13 12 47 35 75 50 29 15 74 41
100 59 60 41 79 43 35 5z m-848 -202 c0 -5 -4 -10 -10 -10 -5 0 -10 5 -10 10
0 6 5 10 10 10 6 0 10 -4 10 -10z m440 -110 c0 -5 -2 -10 -4 -10 -3 0 -8 5
-11 10 -3 6 -1 10 4 10 6 0 11 -4 11 -10z m-40 -30 c0 -5 -8 -17 -18 -27 -23
-22 -152 -180 -174 -212 -9 -13 -14 -31 -11 -40 4 -12 3 -13 -5 -3 -7 10 -17
1 -41 -37 -19 -28 -29 -55 -25 -62 4 -7 3 -9 -3 -6 -11 7 -31 -34 -62 -128
-11 -33 -20 -50 -21 -37 0 49 100 266 147 317 10 11 41 49 68 83 55 70 135
162 141 162 2 0 4 -4 4 -10z m-277 -415 c-3 -9 -8 -14 -10 -11 -3 3 -2 9 2 15
9 16 15 13 8 -4z m-216 -97 c-3 -8 -6 -5 -6 6 -1 11 2 17 5 13 3 -3 4 -12 1
-19z m120 -120 c-3 -8 -6 -5 -6 6 -1 11 2 17 5 13 3 -3 4 -12 1 -19z m1586
-13 c-3 -9 -8 -14 -10 -11 -3 3 -2 9 2 15 9 16 15 13 8 -4z m-1596 -37 c-3 -8
-6 -5 -6 6 -1 11 2 17 5 13 3 -3 4 -12 1 -19z m3866 -13 c-3 -9 -8 -14 -10
-11 -3 3 -2 9 2 15 9 16 15 13 8 -4z m-2318 -44 c-21 -43 -29 -39 -8 4 9 19
18 33 21 31 2 -2 -4 -18 -13 -35z m2245 -60 c-147 -194 -441 -361 -714 -407
-144 -24 -391 -35 -540 -24 -135 9 -268 40 -347 80 -53 28 -49 34 6 9 245
-108 800 -102 1100 13 171 66 363 199 475 329 36 42 67 75 69 73 2 -2 -20 -35
-49 -73z m-2279 -8 c-12 -20 -14 -14 -5 12 4 9 9 14 11 11 3 -2 0 -13 -6 -23z
m-384 -40 c-57 -81 -84 -137 -83 -168 1 -26 5 -30 34 -33 17 -2 32 -8 32 -13
0 -11 36 5 63 29 13 11 42 16 110 16 l92 1 1 -90 c1 -100 36 -404 43 -365 2
18 8 6 18 -40 8 -36 15 -78 17 -95 7 -63 110 -292 165 -365 28 -38 35 -48 80
-125 28 -48 28 -52 19 -117 -6 -38 -14 -68 -19 -68 -4 0 -11 -15 -14 -33 -10
-53 -56 -94 -119 -107 -47 -10 -178 -22 -228 -21 -10 0 -18 -4 -18 -9 0 -36
-192 134 -267 237 -45 61 -67 78 -43 33 10 -18 10 -21 -2 -14 -7 5 -26 9 -42
10 -41 2 -104 76 -158 186 -92 187 -109 365 -56 588 39 160 159 354 340 545
27 27 48 53 48 58 0 4 5 7 10 7 6 0 -5 -21 -23 -47z m2238 17 c-3 -5 -12 -10
-18 -10 -7 0 -6 4 3 10 19 12 23 12 15 0z m-1896 -118 c-16 -63 -33 -142 -38
-175 -7 -52 -9 -55 -10 -22 -1 59 62 327 74 313 1 -2 -10 -54 -26 -116z m1856
98 c-3 -5 -12 -10 -18 -10 -7 0 -6 4 3 10 19 12 23 12 15 0z m-95 -50 c-19
-11 -39 -19 -45 -19 -5 0 6 8 25 19 19 11 40 19 45 19 6 0 -6 -8 -25 -19z
m-230 -80 c-8 -5 -22 -9 -30 -9 -10 0 -8 3 5 9 27 12 43 12 25 0z m-60 -10
c-8 -5 -22 -9 -30 -9 -10 0 -8 3 5 9 27 12 43 12 25 0z m-835 -104 c6 -4 1 -4
-10 2 -11 6 -29 21 -40 34 -19 22 -19 22 10 -2 17 -14 35 -29 40 -34z m-2458
-88 c-3 -8 -6 -5 -6 6 -1 11 2 17 5 13 3 -3 4 -12 1 -19z m1770 -185 c-2 -32
-3 -6 -3 57 0 63 1 89 3 58 2 -32 2 -84 0 -115z m193 107 c5 0 37 -25 72 -55
67 -59 152 -111 231 -140 26 -10 47 -22 47 -26 0 -11 41 -11 58 -1 7 5 10 16
6 25 -4 11 0 19 10 23 18 7 49 -13 41 -26 -3 -4 2 -11 10 -14 8 -3 14 -10 13
-15 -2 -5 2 -10 7 -11 6 -1 36 -27 68 -56 175 -163 408 -257 687 -280 100 -8
127 -18 79 -29 -33 -7 -34 -7 -9 -15 14 -4 71 -8 127 -9 158 -2 420 55 571
124 42 19 70 29 61 22 -9 -6 -16 -14 -15 -17 1 -3 -9 -17 -21 -30 -72 -79
-116 -120 -131 -120 -4 0 -18 -9 -32 -20 -33 -27 -140 -90 -151 -90 -5 0 -43
-16 -83 -35 -41 -19 -79 -35 -85 -35 -6 0 -35 -11 -65 -24 -61 -27 -184 -63
-261 -76 -27 -5 -88 -16 -135 -25 -47 -9 -164 -19 -261 -21 -197 -6 -232 0
-374 67 -38 18 -76 33 -82 32 -7 0 -11 3 -8 7 3 5 -15 18 -40 30 -62 30 -221
184 -284 274 -106 154 -171 349 -146 440 16 58 41 110 59 126 9 7 17 20 17 29
1 9 4 6 6 -6 2 -13 8 -23 13 -23z m-1913 -32 c-3 -8 -6 -5 -6 6 -1 11 2 17 5
13 3 -3 4 -12 1 -19z m3348 -48 c-11 -5 -29 -8 -40 -8 -16 0 -15 2 5 8 34 11
60 11 35 0z m-78 -16 c-3 -3 -12 -4 -19 -1 -8 3 -5 6 6 6 11 1 17 -2 13 -5z
m-2747 -269 c0 -5 -5 -3 -10 5 -5 8 -10 20 -10 25 0 6 5 3 10 -5 5 -8 10 -19
10 -25z m29 -80 c0 -5 -6 1 -14 15 -8 14 -14 30 -14 35 0 6 6 -1 14 -15 8 -14
14 -29 14 -35z m3661 -8 c0 -2 -10 -12 -22 -23 l-23 -19 19 23 c18 21 26 27
26 19z m-3581 -146 c23 -41 65 -106 93 -145 28 -39 44 -65 35 -58 -40 34 -208
305 -207 336 1 6 9 -5 19 -24 9 -19 36 -68 60 -109z m3531 105 c0 -3 -15 -14
-32 -26 l-33 -22 30 26 c31 27 35 29 35 22z m-100 -71 c0 -9 -256 -172 -345
-220 -49 -26 -94 -51 -100 -55 -24 -18 -197 -102 -201 -97 -3 2 10 10 28 18
32 13 207 108 359 194 41 24 115 70 165 104 93 63 94 64 94 56z m-3030 -242
c6 -18 16 -33 22 -33 5 0 7 -4 4 -9 -8 -12 71 -169 98 -196 12 -12 51 -59 88
-106 81 -103 117 -137 188 -177 142 -79 479 -170 715 -192 138 -13 358 -9 505
10 289 37 684 182 930 343 52 34 97 65 100 68 3 3 21 14 40 24 19 10 55 34 80
54 24 19 41 30 37 24 -11 -17 -196 -159 -287 -220 -237 -159 -507 -270 -795
-328 -147 -30 -487 -59 -615 -52 -116 6 -295 37 -278 49 9 5 4 8 -12 8 -14 0
-36 3 -49 7 -15 4 -22 2 -18 -4 4 -6 -4 -8 -21 -5 -23 4 -24 6 -7 12 22 8 33
3 -96 38 -42 12 -107 34 -146 49 -70 29 -73 31 -204 173 -141 153 -258 344
-312 510 -36 109 -42 159 -8 65 15 -44 34 -95 41 -112z m3275 78 c-8 -17 -21
-33 -27 -37 -8 -5 -7 1 3 16 8 14 19 31 23 38 15 25 16 11 1 -17z m-3620 -129
c-1 -2 7 -13 19 -26 11 -12 54 -60 95 -105 67 -75 178 -178 256 -239 l30 -24
-35 21 c-88 51 -164 115 -283 234 -70 72 -130 140 -133 153 -3 13 -10 22 -14
19 -5 -3 -12 0 -16 6 -4 8 -3 9 5 5 6 -4 14 0 18 10 5 14 11 11 34 -17 15 -19
26 -35 24 -37z m106 21 c13 -16 12 -17 -3 -4 -10 7 -18 15 -18 17 0 8 8 3 21
-13z m2589 -117 c0 -2 -7 -7 -16 -10 -8 -3 -12 -2 -9 4 6 10 25 14 25 6z
m-785 -46 c13 -5 14 -9 5 -9 -8 0 -24 4 -35 9 -13 5 -14 9 -5 9 8 0 24 -4 35
-9z m52 -16 c-3 -3 -12 -4 -19 -1 -8 3 -5 6 6 6 11 1 17 -2 13 -5z m-1402
-324 c3 -6 -1 -7 -9 -4 -18 7 -21 14 -7 14 6 0 13 -4 16 -10z m-28 -146 c-3
-3 -12 -4 -19 -1 -8 3 -5 6 6 6 11 1 17 -2 13 -5z m96 -36 c9 -5 17 -7 17 -4
0 7 62 -15 78 -27 27 -21 209 -88 287 -106 260 -60 319 -72 400 -81 l90 -9
-95 4 c-248 11 -542 92 -815 225 -35 17 -36 19 -10 13 17 -3 38 -10 48 -15z
m1292 -218 c-33 -4 -80 -8 -105 -7 -44 0 -44 0 10 7 30 4 78 7 105 7 l50 0
-60 -7z"/>
<path d="M3061 2594 c0 -11 3 -14 6 -6 3 7 2 16 -1 19 -3 4 -6 -2 -5 -13z"/>
<path d="M3670 2676 c0 -2 7 -9 15 -16 13 -11 14 -10 9 4 -5 14 -24 23 -24 12z"/>
<path d="M1970 2046 c0 -2 7 -9 15 -16 13 -11 14 -10 9 4 -5 14 -24 23 -24 12z"/>
<path d="M5007 5314 c-5 -9 36 -64 48 -64 10 0 4 16 -19 44 -13 15 -26 24 -29
20z"/>
<path d="M5260 4801 c0 -6 4 -13 10 -16 6 -3 7 1 4 9 -7 18 -14 21 -14 7z"/>
<path d="M5290 4741 c0 -6 4 -13 10 -16 6 -3 7 1 4 9 -7 18 -14 21 -14 7z"/>
<path d="M4751 4684 c0 -11 3 -14 6 -6 3 7 2 16 -1 19 -3 4 -6 -2 -5 -13z"/>
<path d="M5295 4669 c-4 -6 -5 -12 -2 -15 2 -3 7 2 10 11 7 17 1 20 -8 4z"/>
<path d="M5235 4645 c4 -11 8 -29 7 -40 0 -11 2 -14 5 -7 3 6 9 9 15 6 10 -7
-2 18 -23 46 -9 12 -10 11 -4 -5z"/>
<path d="M5295 4610 c-3 -5 -1 -10 4 -10 6 0 11 5 11 10 0 6 -2 10 -4 10 -3 0
-8 -4 -11 -10z"/>
<path d="M4771 4550 c-2 -58 -13 -79 -35 -61 -9 8 -16 9 -16 3 0 -5 -20 -12
-45 -14 -25 -2 -45 1 -45 5 0 22 -19 -9 -44 -71 -16 -38 -39 -82 -51 -98 -20
-25 -26 -27 -43 -17 -15 9 -25 8 -48 -4 -16 -8 -44 -15 -61 -16 -18 -1 -33 -6
-33 -10 0 -5 -5 -5 -10 -2 -6 4 -18 1 -26 -6 -8 -6 -31 -14 -51 -16 -21 -2
-39 -6 -41 -7 -6 -7 120 -136 133 -136 7 0 39 14 71 30 40 22 59 27 65 19 4
-6 12 -8 18 -5 6 4 14 -1 18 -11 11 -31 35 -53 58 -53 29 0 40 -36 17 -50 -10
-5 -12 -10 -6 -10 17 0 100 92 124 139 47 94 82 321 61 401 l-9 35 -1 -45z
m-121 -474 c0 -2 -8 -10 -17 -17 -16 -13 -17 -12 -4 4 13 16 21 21 21 13z"/>
<path d="M4425 4045 c22 -18 86 -53 70 -38 -5 6 -28 20 -50 32 -22 13 -31 15
-20 6z"/>
<path d="M3924 3138 c10 -6 22 -6 26 -2 5 5 -3 10 -18 11 -22 1 -24 0 -8 -9z"/>
<path d="M4963 2860 c-13 -5 -23 -11 -23 -14 0 -7 40 6 46 15 6 10 6 10 -23
-1z"/>
</g>
</svg>
